<?xml version="1.0" encoding="UTF-8" standalone="yes"?>
<!DOCTYPE svg PUBLIC "-//W3C//DTD SVG 1.1//EN" "http://www.w3.org/Graphics/SVG/1.1/DTD/svg11.dtd">

<svg width="500" height="500" viewBox="0 0 500 500" xmlns="http://www.w3.org/2000/svg" xmlns:xlink="http://www.w3.org/1999/xlink" version="1.1" baseProfile="full">
    <g transform="scale(1,-1) translate(0,-500)">
        <path d="M 302.935900 1.024400 L 304.859800 1.097500 L 306.771000 1.218600 L 308.669000 1.387100 L 310.553100 1.602400 L 312.422700 1.864000 L 314.277300 2.171200 L 316.116300 2.523500 L 317.939100 2.920200 L 319.745100 3.360900 L 321.533700 3.844800 L 323.304300 4.371400 L 325.056300 4.940200 L 326.789200 5.550400 L 328.502400 6.201600 L 330.195200 6.893200 L 331.867100 7.624500 L 333.517500 8.395000 L 335.145800 9.204100 L 336.751400 10.051200 L 338.333700 10.935600 L 339.892100 11.856900 L 341.426100 12.814400 L 342.935100 13.807600 L 344.418400 14.835800 L 345.875500 15.898500 L 347.305800 16.995000 L 348.708800 18.124900 L 350.083700 19.287400 L 351.430000 20.482000 L 352.747200 21.708200 L 354.034600 22.965300 L 355.291700 24.252700 L 356.517900 25.569900 L 357.712500 26.916200 L 358.875000 28.291100 L 360.004900 29.694100 L 361.101400 31.124400 L 362.164100 32.581500 L 363.192300 34.064800 L 364.185500 35.573800 L 365.143000 37.107800 L 366.064300 38.666200 L 366.948700 40.248500 L 367.795800 41.854100 L 368.604900 43.482400 L 369.375400 45.132800 L 370.106700 46.804700 L 370.798300 48.497500 L 371.449500 50.210700 L 372.059700 51.943600 L 372.628500 53.695600 L 373.155100 55.466200 L 373.639000 57.254800 L 374.079700 59.060800 L 374.476400 60.883600 L 374.828700 62.722600 L 375.135900 64.577200 L 375.397500 66.446800 L 375.612800 68.330900 L 375.781300 70.228900 L 375.902400 72.140100 L 375.975500 74.064000 L 376.000000 76.000000 L 375.981100 77.695600 L 375.924900 79.382200 L 375.702100 82.726200 L 375.334500 86.028800 L 374.825300 89.286900 L 374.177800 92.497200 L 373.395200 95.656500 L 372.480500 98.761700 L 371.437000 101.809600 L 370.267800 104.796900 L 368.976100 107.720600 L 367.565200 110.577400 L 366.038100 113.364100 L 364.398100 116.077600 L 362.648200 118.714600 L 360.791800 121.272000 L 358.832000 123.746500 L 356.771900 126.135100 L 354.614700 128.434500 L 352.363700 130.641500 L 350.021900 132.752900 L 347.592500 134.765600 L 345.078800 136.676400 L 342.483900 138.482000 L 339.811000 140.179300 L 337.063200 141.765200 L 334.243800 143.236300 L 331.355800 144.589600 L 328.402600 145.821800 L 325.387200 146.929800 L 322.312900 147.910400 L 319.182700 148.760400 L 315.999900 149.476500 L 316.850800 151.854500 L 317.599400 154.283900 L 318.242200 156.761500 L 318.775800 159.283600 L 319.196800 161.847000 L 319.501800 164.448100 L 319.687300 167.083600 L 319.749900 169.749900 L 319.676700 172.643600 L 319.459400 175.499300 L 319.101500 178.313600 L 318.606700 181.083000 L 317.978300 183.803900 L 317.220100 186.472800 L 316.335400 189.086000 L 315.327900 191.640200 L 314.201100 194.131700 L 312.958600 196.557000 L 311.603800 198.912600 L 310.140300 201.194900 L 308.571700 203.400300 L 306.901500 205.525500 L 305.133200 207.566700 L 303.270400 209.520500 L 301.316700 211.383200 L 299.275500 213.151500 L 297.150300 214.821700 L 294.944900 216.390300 L 292.662600 217.853800 L 290.307000 219.208600 L 287.881700 220.451200 L 285.390200 221.577900 L 282.836000 222.585400 L 280.222800 223.470100 L 277.553900 224.228300 L 274.833000 224.856700 L 272.063600 225.351500 L 269.249300 225.709400 L 266.393600 225.926700 L 263.499900 225.999900 L 261.344800 225.959000 L 259.209200 225.837200 L 257.094700 225.636100 L 255.002900 225.357200 L 252.935500 225.002200 L 250.894200 224.572400 L 248.880400 224.069500 L 246.895900 223.495100 L 244.942400 222.850600 L 243.021300 222.137600 L 241.134400 221.357600 L 239.283300 220.512300 L 237.469600 219.603100 L 235.695000 218.631600 L 233.961100 217.599300 L 232.269500 216.507800 L 230.707000 219.117100 L 229.063800 221.670400 L 227.341800 224.165900 L 225.542600 226.601900 L 223.668100 228.976600 L 221.720000 231.288300 L 219.700100 233.535200 L 217.610100 235.715500 L 215.451700 237.827500 L 213.226800 239.869400 L 210.937100 241.839500 L 208.584300 243.736000 L 206.170300 245.557100 L 203.696700 247.301100 L 201.165400 248.966200 L 198.578100 250.550700 L 195.936500 252.052800 L 193.242400 253.470700 L 190.497600 254.802800 L 187.703900 256.047100 L 184.862900 257.202000 L 181.976500 258.265700 L 179.046400 259.236500 L 176.074400 260.112500 L 173.062200 260.892100 L 170.011600 261.573400 L 166.924400 262.154700 L 163.802200 262.634300 L 160.647000 263.010400 L 157.460300 263.281200 L 154.244100 263.445000 L 151.000000 263.500000 L 148.579300 263.469300 L 146.173800 263.378000 L 143.784200 263.226700 L 141.411200 263.016200 L 139.055600 262.747100 L 136.718100 262.420200 L 134.399400 262.036300 L 132.100300 261.596100 L 129.821400 261.100300 L 127.563600 260.549700 L 125.327600 259.945000 L 123.114100 259.286900 L 120.923800 258.576100 L 118.757500 257.813500 L 116.615900 256.999700 L 114.499700 256.135400 L 112.409700 255.221500 L 110.346700 254.258600 L 108.311200 253.247500 L 106.304200 252.188900 L 104.326300 251.083500 L 102.378200 249.932100 L 100.460700 248.735500 L 98.574600 247.494200 L 96.720500 246.209200 L 94.899200 244.881100 L 93.111400 243.510600 L 91.357900 242.098500 L 89.639300 240.645600 L 87.956600 239.152500 L 86.310200 237.620000 L 84.701100 236.048800 L 83.129900 234.439700 L 81.597400 232.793300 L 80.104300 231.110600 L 78.651400 229.392000 L 77.239300 227.638500 L 75.868800 225.850700 L 74.540700 224.029400 L 73.255700 222.175300 L 72.014400 220.289200 L 70.817800 218.371700 L 69.666400 216.423600 L 68.561000 214.445700 L 67.502400 212.438700 L 66.491300 210.403200 L 65.528400 208.340200 L 64.614500 206.250200 L 63.750200 204.134000 L 62.936400 201.992400 L 62.173800 199.826100 L 61.463000 197.635800 L 60.804900 195.422300 L 60.200200 193.186300 L 59.649600 190.928500 L 59.153800 188.649600 L 58.713600 186.350500 L 58.329700 184.031800 L 58.002800 181.694300 L 57.733700 179.338700 L 57.523200 176.965700 L 57.371900 174.576100 L 57.280600 172.170600 L 57.250000 169.750000 L 57.286600 167.376900 L 57.367100 165.003900 L 54.318500 163.864300 L 51.326800 162.611600 L 48.394500 161.248500 L 45.524300 159.777500 L 42.718900 158.201200 L 39.980800 156.522200 L 37.312600 154.743200 L 34.717000 152.866700 L 32.196600 150.895400 L 29.754000 148.831900 L 27.391800 146.678700 L 25.112700 144.438500 L 22.919200 142.113900 L 20.814000 139.707400 L 18.799700 137.221800 L 16.878900 134.659600 L 15.054200 132.023400 L 13.328300 129.315800 L 11.703700 126.539500 L 10.183100 123.697000 L 8.769200 120.790900 L 7.464400 117.823900 L 6.271500 114.798500 L 5.193100 111.717400 L 4.231700 108.583200 L 3.390000 105.398400 L 2.670600 102.165800 L 2.076200 98.887800 L 1.609200 95.567100 L 1.272500 92.206300 L 1.068500 88.808100 L 0.999900 85.375000 L 1.027500 83.198000 L 1.109800 81.034500 L 1.246100 78.885300 L 1.435800 76.750900 L 1.678100 74.632000 L 1.972500 72.529400 L 2.318300 70.443600 L 2.714800 68.375300 L 3.161400 66.325200 L 3.657300 64.294000 L 4.202000 62.282300 L 4.794700 60.290700 L 5.434900 58.320000 L 6.121700 56.370800 L 6.854600 54.443800 L 7.632900 52.539600 L 8.456000 50.658900 L 9.323100 48.802300 L 10.233700 46.970600 L 11.187000 45.164300 L 12.182400 43.384300 L 13.219200 41.631000 L 14.296700 39.905200 L 15.414400 38.207600 L 16.571400 36.538700 L 17.767300 34.899300 L 19.001200 33.290100 L 20.272600 31.711700 L 21.580700 30.164700 L 22.925000 28.649900 L 24.304700 27.167800 L 25.719200 25.719200 L 27.167800 24.304700 L 28.649900 22.925000 L 30.164700 21.580700 L 31.711700 20.272600 L 33.290100 19.001200 L 34.899300 17.767300 L 36.538700 16.571400 L 38.207600 15.414400 L 39.905200 14.296700 L 41.631000 13.219200 L 43.384300 12.182400 L 45.164300 11.187000 L 46.970600 10.233700 L 48.802300 9.323100 L 50.658900 8.456000 L 52.539600 7.632900 L 54.443800 6.854600 L 56.370800 6.121700 L 58.320000 5.434900 L 60.290700 4.794700 L 62.282300 4.202000 L 64.294000 3.657300 L 66.325200 3.161400 L 68.375300 2.714800 L 70.443600 2.318300 L 72.529400 1.972500 L 74.632000 1.678100 L 76.750900 1.435800 L 78.885300 1.246100 L 81.034500 1.109800 L 83.198000 1.027500 L 85.375000 1.000000 L 301.000000 1.000000 Z M 168.837800 38.542500 L 167.944900 38.670200 L 167.065800 38.883100 L 166.207200 39.181100 L 165.376200 39.564200 L 164.579400 40.032500 L 163.823900 40.586000 L 163.116400 41.224600 L 101.358600 102.982400 L 100.833300 103.548900 L 100.366300 104.137300 L 99.956500 104.744800 L 99.602700 105.368800 L 99.304000 106.006800 L 99.059100 106.656100 L 98.866900 107.314200 L 98.726500 107.978400 L 98.636500 108.646100 L 98.596100 109.314700 L 98.603900 109.981700 L 98.659000 110.644300 L 98.760300 111.300000 L 98.906600 111.946200 L 99.096800 112.580300 L 99.329800 113.199600 L 99.604500 113.801700 L 99.919900 114.383700 L 100.274700 114.943200 L 100.667900 115.477600 L 101.098500 115.984200 L 101.565200 116.460400 L 102.067000 116.903600 L 102.602800 117.311300 L 103.171500 117.680700 L 103.771900 118.009400 L 104.403000 118.294600 L 105.063600 118.533900 L 105.752700 118.724500 L 106.469200 118.863800 L 107.211900 118.949400 L 107.979700 118.978500 L 146.300000 118.978500 L 146.300000 184.603500 L 146.348600 185.558500 L 146.491300 186.486700 L 146.723300 187.383300 L 147.039700 188.243600 L 147.435800 189.062700 L 147.906700 189.835700 L 148.447700 190.557900 L 149.053900 191.224600 L 149.720500 191.830800 L 150.442800 192.371700 L 151.215800 192.842600 L 152.034900 193.238700 L 152.895100 193.555100 L 153.791800 193.787100 L 154.720000 193.929800 L 155.675000 193.978500 L 183.800000 193.978500 L 184.755000 193.929800 L 185.683200 193.787100 L 186.579900 193.555200 L 187.440100 193.238700 L 188.259200 192.842600 L 189.032200 192.371700 L 189.754500 191.830800 L 190.421100 191.224600 L 191.027300 190.557900 L 191.568200 189.835700 L 192.039200 189.062700 L 192.435200 188.243600 L 192.751700 187.383400 L 192.983600 186.486700 L 193.126400 185.558500 L 193.175000 184.603500 L 193.175000 118.978500 L 231.495300 118.978500 L 232.268300 118.949400 L 233.015500 118.863800 L 233.735800 118.724500 L 234.428200 118.533900 L 235.091600 118.294600 L 235.724900 118.009400 L 236.327000 117.680800 L 236.896900 117.311300 L 237.433500 116.903700 L 237.935800 116.460400 L 238.402500 115.984200 L 238.832800 115.477600 L 239.225500 114.943300 L 239.579500 114.383700 L 239.893700 113.801700 L 240.167200 113.199700 L 240.398800 112.580300 L 240.587400 111.946200 L 240.731900 111.300000 L 240.831400 110.644300 L 240.884700 109.981700 L 240.890700 109.314800 L 240.848500 108.646100 L 240.756800 107.978400 L 240.614600 107.314200 L 240.421000 106.656100 L 240.174700 106.006800 L 239.874700 105.368800 L 239.519900 104.744800 L 239.109400 104.137300 L 238.641900 103.548900 L 238.116400 102.982400 L 176.358600 41.224600 L 175.651100 40.586000 L 174.895600 40.032500 L 174.098900 39.564300 L 173.267800 39.181100 L 172.409200 38.883100 L 171.530100 38.670200 L 170.637200 38.542500 L 169.737500 38.499900 Z" transform="scale(1.000000,1.000000) translate(61.500000,117.750000)" opacity="1.000000"></path>
    </g>
</svg>